<svg width="794" height="2242" xmlns="http://www.w3.org/2000/svg">
 <!-- Created with Method Draw - http://github.com/duopixel/Method-Draw/ -->
 <defs>
  <pattern height="19" width="19" patternUnits="userSpaceOnUse" id="gridpattern">
   <path stroke-width="0.5" stroke="#46A3FC" fill="none" d="m19,0l-19,0l0,19" id="gridPath"/>
  </pattern>
  <pattern height="1121" width="794" patternUnits="userSpaceOnUse" id="gridpagebreak">
   <rect stroke-width="0" fill="#3f3f3c" height="19" width="794" y="0" x="0" id="gridPagebreakPath"/>
  </pattern>
 </defs>
 <g>
  <title>background</title>
  <rect fill="#fff" id="canvas_background" height="2244" width="796" y="-1" x="-1"/>
  <g display="inline" overflow="visible" y="0" x="0" height="100%" width="100%" id="canvasGrid">
   <rect fill="url(#gridpattern)" stroke-width="0" y="0" x="0" height="100%" width="100%"/>
   <rect fill="url(#gridpagebreak)" stroke-width="0" y="0" x="0" height="100%" width="100%"/>
  </g>
 </g>
 <g>
  <title>Layer 1</title>
  <path d="m32.33661,61.33278c-0.66666,0.66666 -0.66666,1.33332 -0.66666,1.99998c0,0 0,0 0,0c0,0 -0.66666,0 -0.66666,0c0,0 0,0 0,0c0,0 0,0 0,0c0,0 0.51349,-0.01783 0.66666,-0.66666c0.34249,-1.45082 1.33332,-3.33331 1.99998,-5.33329c0.66666,-1.99998 1.33332,-3.99997 1.99998,-5.99995c0.66666,-1.99998 1.19322,-3.38559 1.99998,-5.33329c0.57047,-1.37722 0.66666,-2.66664 1.33332,-3.3333c0.66666,-0.66666 0.66666,-0.66666 0.66666,-0.66666c0.66666,0 0.51349,0.01783 0.66666,0.66666c0.34249,1.45082 0.99563,2.58568 1.33332,4.66663c0.21357,1.3161 0.30587,3.12893 0.66666,3.99996c0.51024,1.23183 0.19526,1.52858 0.66666,1.99998c0.4714,0.4714 0.66666,0.66666 1.33332,0.66666c0.66666,0 1.43288,-0.31618 1.99998,-0.66666c1.26806,-0.78371 1.88293,-1.39857 2.66665,-2.66664c0.35048,-0.5671 0.66666,-1.33332 1.33332,-1.99998c0,0 0.41154,0.05075 0.66666,0.66666c0.36079,0.87103 0.3463,2.02581 0.66666,3.99996c0.33769,2.08095 0.99563,3.25234 1.33332,5.33329c0.21357,1.3161 0,1.99998 0.66666,2.66665l0,0.66666l0.66666,0l0.66666,0" id="svg_1" stroke-width="2.5" stroke="#000" fill="none"/>
  <path d="m57.66971,61.33278c0,-1.33332 0.78205,-1.90181 1.33332,-2.66665c0.87163,-1.20932 1.25176,-3.3773 1.99998,-4.66662c1.20647,-2.07897 1.74042,-4.10615 2.66665,-5.99995c1.05606,-2.15926 1.33332,-3.3333 1.99998,-3.99997c0.66666,-0.66666 0.66666,-0.66666 1.33332,-0.66666c0,0 0.34631,1.35915 0.66666,3.33331c0.33769,2.08094 0.79939,4.70966 1.33332,7.99993c0.33769,2.08094 0.99083,4.54912 1.33332,5.99995c0.30634,1.29765 0,1.99998 0,1.99998c0.66666,0 0.66666,0 0.66666,0c0,-0.66666 0,-1.99998 0,-2.66665c0,-1.33332 0.09818,-2.11538 -0.66666,-2.66664c-1.20931,-0.87163 -2.01781,-1.18016 -2.66664,-1.33332c-1.45083,-0.34249 -1.99998,-0.66666 -2.66665,-0.66666l0,0l0,0" id="svg_2" stroke-width="2.5" stroke="#000" fill="none"/>
  <ellipse ry="217.33138" rx="217.33138" id="svg_3" cy="323.99708" cx="377.00017" stroke-width="2.5" stroke="#000" fill="none"/>
  <line stroke-linecap="undefined" stroke-linejoin="undefined" id="svg_4" y2="549.35101" x2="377.00017" y1="67.99939" x1="377.00017" opacity="0.5" stroke-width="2.5" stroke="#000" fill="none"/>
  <line stroke-linecap="undefined" stroke-linejoin="undefined" id="svg_6" y2="323.33042" x2="629.03269" y1="323.33042" x1="111.66923" stroke-width="2.5" stroke="#000" fill="none"/>
  <line stroke-linecap="null" stroke-linejoin="null" id="svg_7" y2="49.33289" x2="619.66465" y1="322.66376" x1="379.00015" stroke-width="2.5" stroke="#d22710" fill="none"/>
  <line stroke-linecap="null" stroke-linejoin="null" id="svg_8" y2="105.99905" x2="668.33088" y1="106.66571" x1="102.33598" stroke-width="2.5" stroke="#80d633" fill="none"/>
  <line stroke-linecap="null" stroke-linejoin="null" id="svg_9" y2="51.33287" x2="590.33158" y1="464.66248" x1="600.33149" stroke-width="2.5" stroke="#80d633" fill="none"/>
  <line stroke-linecap="null" stroke-linejoin="null" id="svg_10" y2="325.3304" x2="523.66552" y1="163.33186" x1="520.33221" stroke-width="2.5" stroke="#164ba7" fill="none"/>
  <path d="m544.33197,249.33109c-0.66663,0 -2.03558,-0.30632 -3.33325,0c-1.45087,0.3425 -2.79071,1.795 -4,2.66664c-0.76483,0.55127 -1.52856,0.86191 -2,1.33333c-0.47137,0.47139 0,0.66666 0,1.33331c0,0 -0.20496,0.79068 0.66669,2c0.55127,0.76483 1.79504,2.12396 2.66663,3.33328c1.10254,1.52969 2,1.99997 2.66669,2.66666c0.66663,0.66666 0.66663,1.33331 1.33331,1.33331c0,0 0,0.66666 0,0.66666c-0.66669,0 -1.33331,0.66666 -2.66669,0.66666c-1.99994,0 -3.33325,0 -5.33325,0c-1.33331,0 -2,0 -3.33331,-0.66666l0,0l0,-1.33331l0,-0.66666" id="svg_12" stroke-width="2.5" stroke="#164ba7" fill="none"/>
  <path d="m546.99866,256.66437c0.66663,0.66666 0.66663,1.99997 0.66663,3.33328c0,1.33334 0,2 0,3.33331c0,0.66666 0,1.33331 0,1.33331c0,0 0,0 0,0l0.66669,-0.66666" id="svg_13" stroke-width="2.5" stroke="#164ba7" fill="none"/>
  <path d="m550.33197,247.99777c-1.33337,0 -1.33337,0 -2,0.66666c0,0 -0.66669,0 -0.66669,0l0,0l0,0.66666l0,0" id="svg_14" stroke-width="2.5" stroke="#164ba7" fill="none"/>
  <path d="m553.66522,257.33102c-0.66663,0.66666 -0.99078,1.88245 -1.33331,3.33328c-0.45953,1.9465 -0.66663,3.33331 -0.66663,4.66663c0,1.33334 0,2 0,2.66666c0,0 0,0 0,0c0.66663,0 1.33331,-0.66666 1.99994,-1.99997c0.66669,-1.33334 2,-2.66663 2.66669,-3.99997c0.66669,-1.33334 1.63916,-2.46231 1.99994,-3.33331c0.25513,-0.61591 0.19531,-1.52856 0.66669,-1.99997c0.47144,-0.47141 0.66669,0 0.66669,0c0.66663,0 0.97247,0.46228 1.33331,1.33331c0.25513,0.61591 0,1.99997 0,2.66663c0,1.33334 0,2.66666 0,3.99997c0,0.66666 0.66663,1.33334 0.66663,1.33334c0,0.66666 0.66669,0.66666 1.33331,0.66666l1.33331,0" id="svg_15" stroke-width="2.5" stroke="#164ba7" fill="none"/>
  <line stroke-linecap="null" stroke-linejoin="null" id="svg_16" y2="329.33037" x2="526.33216" y1="328.66371" x1="379.66681" stroke-width="2.5" stroke="#5a64e4" fill="none"/>
  <path d="m436.33298,337.99695c-1.33334,-0.66666 -2.66666,-0.66666 -3.99997,-0.66666c-1.33331,0 -2.79065,0.46167 -3.99997,1.33331c-1.52969,1.10254 -2.66663,2 -3.33331,3.33331c-0.66666,1.33331 -0.66666,2.66666 -0.66666,3.99997c0,1.99997 -0.76535,3.48557 0,5.33328c0.36078,0.87103 1.12897,2.30585 2,2.66666c1.23181,0.51025 1.99997,0 3.33328,0c1.33334,0 2.66666,0 3.99997,0l1.33331,-0.66669l0.66669,-0.66666l0.66666,-0.66666" id="svg_18" stroke-width="2.5" stroke="#5a64e4" fill="none"/>
  <path d="m447.6662,341.99692c-1.99997,0 -3.13696,0.23077 -4.66663,1.33331c-1.20932,0.87164 -1.99997,2 -2.66663,3.33331c-0.66669,1.33331 -0.66669,2.66666 -0.66669,3.99997c0,0.66666 -0.20438,1.63919 0.66669,1.99997c1.23181,0.51022 3.99994,0.66666 5.33328,0c1.33331,-0.66666 1.99997,-1.33331 3.33328,-2.66663c1.33334,-1.33334 1.48978,-2.1015 2,-3.33331c0.36078,-0.87103 0.66666,-1.99997 0.66666,-2.66663c0,-0.66669 -0.41153,-2.05075 -0.66666,-2.66666c-0.36078,-0.87103 -0.66666,-0.66666 -1.33334,-1.33331l0,0l-0.66666,0l-1.33331,0" id="svg_19" stroke-width="2.5" stroke="#5a64e4" fill="none"/>
  <path d="m465.66605,341.99692c-1.33334,0 -2.66666,0 -3.33331,0c-0.66666,0 -1.52856,0.19525 -1.99997,0.66666c-0.47141,0.47141 -0.66666,0.66666 -0.66666,1.33334c0,0 0,0.66666 0,1.33331c0,0.66666 0,1.33331 0.66666,1.99997c0.66666,0.66666 1.35114,1.18015 1.99997,1.33331c1.45084,0.3425 2.05072,1.07822 2.66666,1.33334c0.87103,0.36078 0.66666,0.66666 0.66666,1.33331c0,0 0.47141,0.19525 0,0.66666c-0.47141,0.47141 -1.25238,0.32898 -3.33331,0.66666c-1.3161,0.21356 -3.33331,0.66666 -4.66663,0.66666c-1.33331,0 -1.99997,0.66669 -2.66663,0.66669l-0.66669,0l-0.66666,0l-0.66666,-0.66669" id="svg_20" stroke-width="2.5" stroke="#5a64e4" fill="none"/>
  <path d="m611.66473,183.99834c-0.66669,0.66667 -0.82306,0.76817 -1.33331,1.99998c-0.36078,0.87106 -1.08893,2.68163 -1.33331,4.66663c-0.33588,2.72812 -0.66669,5.33328 -0.66669,7.99992c0,2.66666 -0.42719,4.70107 0,7.33327c0.33771,2.08095 0.99084,3.88248 1.33331,5.3333c0.15314,0.64882 0.71741,1.07822 1.33331,1.33331c0.87103,0.36079 3.35052,0.88023 4.66663,0.66666c2.08093,-0.33769 3.33331,-1.99997 4,-3.3333l0.66663,-0.66666" id="svg_21" stroke-width="2.5" stroke="#80d633" fill="none"/>
  <path d="m618.99799,196.6649c-1.33331,-0.66667 -3.33331,-0.66667 -4.66663,-0.66667c-2.66663,0 -4.66663,0 -6.66663,0c-1.99994,0 -2.66663,0 -3.99994,0c-0.66669,0 -0.66669,0 -0.66669,0c0,0 0,0 0.66669,0l1.33331,0" id="svg_22" stroke-width="2.5" stroke="#80d633" fill="none"/>
  <path d="m623.66461,199.33154c0.66669,-1.33333 1.33331,-1.33331 2,-1.99998c0.66663,-0.66664 1.33331,-0.66666 2.66663,-0.66666c0.66669,0 1.52856,-0.47142 2,0c0.47137,0.47139 0.66663,4.66663 0.66663,6.6666c0,1.99998 0,3.33331 0,4.66663c0,0.66667 -0.30585,1.12897 -0.66663,1.99998c-0.25513,0.61591 0,0.66666 0,0.66666c0,0 0,0 0,-0.66666c0,-0.66666 0.51025,-1.43481 0,-2.66664c-0.36084,-0.87105 -0.66669,-2 -1.33331,-2.66664c-0.66669,-0.66667 -1.12897,-1.63919 -2,-1.99998c-0.61591,-0.25514 -2,0 -3.33331,0c-1.33331,0 -2,0.66664 -3.33331,1.99998c-0.66663,0.66666 -0.97247,1.79559 -1.33331,2.66664c-0.51025,1.23183 -0.20435,2.30585 0.66669,2.66664c0.61591,0.2551 1.99994,0.66666 2.66663,0.66666c0.66669,0 1.79559,0.30586 2.66663,0.66667c1.23181,0.51025 2,0 3.33331,0c0.66669,0 2,0 2.66663,-0.66667l0.66669,-0.66666" id="svg_23" stroke-width="2.5" stroke="#80d633" fill="none"/>
  <path d="m636.33118,195.99823c0,0.66667 0,1.99998 0,3.99997c0,1.99998 0,3.99997 0,5.33328c0,1.33333 0,1.99998 0,2.66664c0,0 0,0 0,0c0.66663,0 2.23077,-1.13695 3.33331,-2.66664c0.87158,-1.2093 2.12396,-2.46164 3.33331,-3.3333c0.76483,-0.55125 1.33331,-1.33333 1.99994,-1.33333c0.66669,0 1.63916,0.46228 2,1.33333c0.51025,1.23181 0.66669,2.66664 0.66669,3.99995c0,0.66667 0.19525,1.52859 0.66663,1.99998c0.47144,0.47142 0.66669,0 1.33331,0l0.66669,0" id="svg_24" stroke-width="2.5" stroke="#80d633" fill="none"/>
  <line stroke-linecap="null" stroke-linejoin="null" id="svg_26" y2="101.33242" x2="570.33176" y1="101.33242" x1="379.00015" stroke-width="2.5" stroke="#1ebfe9" fill="none"/>
  <path d="m457.66611,80.66594c-1.33331,0 -1.99997,0 -2.66663,0c-0.66669,0 -2,0 -2.66666,0c-1.33331,0 -2.27921,0.27923 -3.33331,1.33332c-1.05408,1.05408 -1.4295,1.95608 -1.99997,3.33331c-0.80676,1.94769 -1.33331,3.33331 -1.33331,4.66663c0,1.99998 0,3.33331 0,4.66663c0,0.66666 0.66666,1.33332 1.33331,1.99998c0.66666,0.66666 1.99997,0.66666 3.33331,0.66666c0.66666,0 1.99997,-0.00001 3.33328,-0.66666c1.33334,-0.66666 2,-1.33332 2.66666,-1.33332l0,-0.66666l0.66666,-0.66666" id="svg_28" stroke-width="2.5" stroke="#1ebfe9" fill="none"/>
  <path d="m468.99933,87.99921c0.66669,-0.66666 0.66669,-0.66666 0.66669,-1.33332c0,0 0,-0.66666 0,-0.66666c0,-0.66666 0,-0.66666 -0.66669,-0.66666c-0.66666,0 -1.90179,0.11539 -2.66663,0.66666c-1.20932,0.87163 -2,1.99998 -2.66666,2.66664c-0.66666,0.66666 -0.97253,1.79561 -1.33331,2.66664c-0.25513,0.61591 -0.25513,2.05073 0,2.66664c0.36078,0.87103 2.01779,1.18015 2.66666,1.33332c1.45081,0.34249 2.7023,0.97299 3.99994,0.66666c1.45084,-0.34249 2.66666,-1.99998 3.99997,-2.66664c1.33334,-0.66666 2.32416,-1.21583 2.66666,-2.66665c0.15317,-0.64883 0,-1.33332 0.66666,-1.99998c0,0 0,-0.66666 0,-1.33332c0,-0.66666 0.20438,-1.63919 -0.66666,-1.99998c-0.61591,-0.25512 -1.79562,-0.30587 -2.66666,-0.66666c-0.61591,-0.25512 -1.33331,0 -1.99997,0l-0.66666,0" id="svg_29" stroke-width="2.5" stroke="#1ebfe9" fill="none"/>
  <path d="m479.66592,75.33266c-0.66669,-1.33332 -0.66669,-1.33332 -0.66669,-1.33332c0,0 0,0 0,0c0,0 0,0 0,0c-0.66666,0 -1.65747,0.54916 -1.99997,1.99998c-0.4595,1.94649 -0.34085,4.01995 -0.66666,6.66661c-0.33585,2.72812 -0.66666,5.33328 -0.66666,7.99992c0,3.33331 0,4.66663 0.66666,5.33329c0,0 0.66666,0 1.99997,0c1.33334,0 2.94589,-0.27924 3.99997,-1.33332c1.05408,-1.05408 1.33331,-1.99998 2,-2.66665c0.66666,-0.66665 0.66666,-1.33332 1.33331,-1.33332l0,-0.66666" id="svg_30" stroke-width="2.5" stroke="#1ebfe9" fill="none"/>
  <path d="m484.33255,79.99928c-1.33334,-0.66666 -2,-0.66666 -2.66666,-0.66666c-1.33331,0 -2.66666,0 -3.99997,0c-1.33331,0 -2.7023,-0.30634 -3.99997,0c-1.45081,0.34249 -1.99997,1.33332 -1.99997,1.33332c-0.66666,0 -0.66666,0 -1.33331,0.66666l0,0l-0.66666,0" id="svg_31" stroke-width="2.5" stroke="#1ebfe9" fill="none"/>
  <path d="m424.33307,299.33063c-0.66666,0.66669 -2.89743,3.13693 -3.99997,4.66663c-1.74326,2.41864 -2.91418,4.4978 -4.66663,7.33328c-1.56741,2.5361 -3.33328,4.66663 -3.99994,5.99994c-0.66666,1.33331 -1.33334,1.99997 -1.33334,1.99997c0,0 -0.24438,-1.3483 0,-3.33328c0.33585,-2.72815 1.79501,-10.1239 2.66666,-11.33325c1.10251,-1.52966 1.99997,-1.33331 2.66663,-1.33331c0.66669,0 1.40228,0.60422 2,1.33331c1.5239,1.85889 2.47604,3.47443 3.99997,5.33331c1.19543,1.45819 1.88248,2.99078 3.33328,3.33328c0.64886,0.15317 1.33334,0.66666 2,1.33334l0.66666,0l0,0" id="svg_32" stroke-width="2.5" stroke="#c3c3c3" fill="none"/>
  <path d="m424.99973,283.33078c0.66669,0.66666 2.21429,2.53934 3.33331,4.66663c1.67136,3.17731 3.33331,7.33328 4.66663,11.99991c1.33331,4.6666 2.66666,13.33319 2.66666,17.33316c0,2.66666 -0.66669,5.33328 -1.33334,7.99994l-0.66666,1.33331l-1.33331,1.33331l-0.66666,0.66666" id="svg_33" stroke-width="2.5" stroke="#c3c3c3" fill="none"/>
  <path d="m484.33255,341.33026c-1.33334,1.33331 -1.80942,2.80777 -3.33331,4.66663c-1.79318,2.18732 -3.33331,3.33331 -5.33328,5.33328c-1.33331,1.33331 -2.54916,2.99081 -3.99997,3.33331c-0.64883,0.15317 -0.66666,-0.66666 -0.66666,-2c0,-1.99997 0,-3.99997 0.66666,-6.6666l0.66666,-2.66666l0.66666,-1.99997" id="svg_34" stroke-width="2.5" stroke="#c3c3c3" fill="none"/>
  <path d="m474.9993,339.99695c1.33331,2.66663 1.99997,5.33328 3.33328,8.66656c1.33334,3.33331 2.12686,6.58765 3.33331,8.6666c0.74823,1.28934 1.99997,2 3.33331,2l1.33331,-1.33334l1.33331,-1.33331" id="svg_35" stroke-width="2.5" stroke="#c3c3c3" fill="none"/>
  <path d="m573.66504,254.66437c-1.33331,0 -1.33331,0.66667 -1.33331,0.66667c-0.66663,0.66666 -1.33331,1.33333 -1.99994,2.66664c-0.66669,1.33331 -1.56415,1.80362 -2.66669,3.33331c-0.87158,1.20932 -1.33331,1.99997 -1.99994,2.66663c-0.66669,0.66669 -1.33337,0.66666 -2,0.66666c-0.66669,0 -0.51355,-0.01782 -0.66669,-0.66666c-0.34247,-1.45081 -0.66663,-1.99997 -0.66663,-3.33331c0,-1.33331 0,-2.66663 0.66663,-3.33328c0.66669,-0.66669 1.38403,-1.74486 2,-1.99998c0.87103,-0.36079 1.52856,-1.13809 2,-0.66667c0.94281,0.94281 0.99078,1.88248 1.33331,3.33331c0.30634,1.29764 0.46222,2.9725 1.33331,3.33331c0.61597,0.25513 1.33331,0.66666 2.66663,0.66666l1.33331,0" id="svg_37" stroke-width="2.5" stroke="#c3c3c3" fill="none"/>
  <path d="m666.33087,195.99823c0.66669,0.66667 0.66669,0.66667 0.66669,0.66667c0,0 0,0.66666 0,1.33331c0,0.66666 -0.94592,1.61256 -2,2.66664c-1.05408,1.05408 -2.66663,1.99998 -3.99994,2.66664c-1.33331,0.66667 -3.52856,1.13809 -4,0.66667c-0.47144,-0.47141 -0.66663,-1.99998 -0.66663,-2.66664c0,-1.33333 0,-2.66666 0,-3.33331c0,-0.66666 0,-1.33331 0,-1.33331c0,0 0.66663,0 0.66663,0c0.66669,0 2.01782,-0.15317 2.66669,0c1.45081,0.34248 2.46167,1.45732 3.33331,2.66664c1.10254,1.52966 2.11536,2.56845 2.66663,3.3333c0.87164,1.2093 0.46228,2.30585 1.33331,2.66664c0.61597,0.25513 0.66669,0 1.33331,0l0,0" id="svg_38" stroke-width="2.5" stroke="#c3c3c3" fill="none"/>
  <path d="m498.3324,83.33258c0,0.66666 0,1.33332 0,1.99998c0,1.33332 -0.89746,1.80363 -1.99997,3.33331c-0.87161,1.20932 -1.80362,2.23076 -3.33331,3.3333c-1.20932,0.87162 -1.88248,0.99084 -3.33328,1.33333c-0.64883,0.15317 -1.07822,-0.71741 -1.33334,-1.33333c-0.36078,-0.87103 -0.66666,-1.99998 -0.66666,-3.3333c0,-1.99998 0.66666,-3.3333 1.33334,-4.66663c0.66666,-1.33331 1.12894,-2.30585 1.99997,-2.66664c0.61591,-0.25512 0.66666,0 1.33331,0c0.66666,0 1.02698,0.70232 1.33331,1.99998c0.3425,1.45083 1.56415,3.13695 2.66666,4.66663c0.87161,1.20932 1.90179,2.78204 2.66666,3.33331c1.20932,0.87161 1.99997,1.33332 2.66663,1.33332l0.66666,0l0.66666,0" id="svg_39" stroke-width="2.5" stroke="#c3c3c3" fill="none"/>
  <ellipse id="svg_41" cy="779.32632" cx="286.33432" stroke-width="2.5" stroke="#c3c3c3" fill="none"/>
  <ellipse ry="154.66527" rx="154.66527" id="svg_42" cy="780.65964" cx="286.33432" stroke-width="2.5" stroke="#c3c3c3" fill="none"/>
  <line stroke-linecap="null" stroke-linejoin="null" id="svg_44" y2="778.65966" x2="91.00274" y1="778.65966" x1="488.99916" stroke-width="2.5" stroke="#000000" fill="none"/>
  <line stroke="#000000" stroke-linecap="null" stroke-linejoin="null" id="svg_45" y2="603.99456" x2="286.33432" y1="951.32477" x1="285.66766" stroke-width="2.5" fill="none"/>
  <line stroke="#c3c3c3" stroke-linecap="null" stroke-linejoin="null" id="svg_48" y2="772.65971" x2="281.66769" y1="771.32639" x1="281.66769" fill-opacity="null" stroke-opacity="null" stroke-width="2.5" fill="none"/>
  <line stroke-linecap="null" stroke-linejoin="null" id="svg_50" y2="613.32781" x2="52.33643" y1="775.99301" x1="284.33434" stroke-width="2.5" stroke="#d22710" fill="none"/>
  <path d="m327.66727,770.65973c1.33334,-0.66669 1.33334,-0.66669 1.33334,-0.66669c0,0 0,0 0,0c0,-0.66663 0,-1.33331 -0.66666,-1.99994c-0.66669,-0.66669 -1.42953,-1.95612 -2,-3.33331c-0.80676,-1.94769 -1.46014,-3.25433 -2.66663,-5.33331c-0.74823,-1.28931 -2,-2.66663 -2.66666,-3.33325c-1.33334,-1.33331 -2.12396,-1.79504 -3.33331,-2.66669c-0.76483,-0.55127 -1.35114,-1.18018 -1.99997,-1.33331c-1.45081,-0.34247 -1.90179,-1.44873 -2.66666,-2c-1.20932,-0.87158 -1.99997,-1.33331 -2.66663,-1.99994c-0.66669,-0.66669 -1.12894,-1.63922 -2,-2c-1.23181,-0.51025 -1.99997,-0.66669 -2.66663,-0.66669c-0.66666,0 -1.33331,-0.66663 -1.99997,-0.66663c-0.66669,0 -0.66669,-0.66669 -1.33334,-0.66669c-0.66666,0 -1.33331,-0.66663 -1.99997,-0.66663c-1.33331,0 -2,-0.66669 -2.66666,-0.66669c-0.66666,0 -1.33331,0 -1.99997,0c-0.66666,0 -2,-0.66663 -2.66666,-0.66663c-0.66666,0 -1.33331,0 -1.99997,0c-0.66666,0 -1.99997,0 -2.66666,0c-0.66666,0 -1.33331,0 -2.66663,0c-0.66666,0 -1.33331,0 -1.33331,0c-0.66669,0 -1.33334,0 -2,0c-0.66666,0 -1.33331,0 -1.99997,0c-0.66666,0 -0.66666,0.66663 -1.33334,0.66663c-0.66666,0 -1.33331,0 -1.33331,0c-0.66666,0.66669 -0.66666,0.66669 -1.33331,0.66669c0,0 -0.66666,0 -1.33331,0.66663c0,0 -0.66666,0 -1.33334,0.66669c0,0 -0.66666,0 -1.33331,0.66663c0,0 -0.19525,0.19525 -0.66666,0.66669c-0.47141,0.47137 -1.12894,0.30585 -1.99997,0.66669c-0.61594,0.25513 -1.12897,0.97247 -2,1.33331c-0.61591,0.25513 -1.12894,0.97247 -1.99997,1.33331c-0.61591,0.25513 -1.33334,0.66663 -1.33334,0.66663c-0.66666,0.66669 -0.66666,0.66669 -1.33331,0.66669c0,0 0,0.66669 0,0.66669c0,0 0,0 0,0c0,0 0,0 0,0c0,0 0,0 0,0c0.66666,-0.66669 0.66666,-1.33337 1.33331,-2c0.66669,-0.66669 1.61258,-1.61255 2.66666,-2.66663c1.05411,-1.05414 1.07822,-2.71741 1.33331,-3.33331c0.36078,-0.87103 0.66666,-1.33331 0.66666,-2c0,0 0,0 0.66669,-0.66669c0,0 0,0 0,0c0,0 0,0 0,0c0,0 0,0 0,0c0,0 -0.66669,0 -0.66669,0c0,0 0,0 0,0c-0.66666,0 -0.97253,-0.20435 -1.33331,0.66669c-0.25513,0.61597 0,0.66669 -0.66666,1.33331c-0.66669,0.66669 -0.97253,1.12897 -1.33331,2c-0.51022,1.23181 -0.97253,1.79559 -1.33334,2.66663c-0.25516,0.61591 -0.41153,1.38409 -0.66666,2c-0.36078,0.87103 -0.97253,0.46228 -1.33331,1.33331c-0.25513,0.61597 0,0.66669 0,0.66669c0,0.66663 0,0.66663 0,0.66663c0,0 0,0 0,0c0,0 0,0.66669 0,0.66669c0.66666,0 0.66666,0.66663 0.66666,0.66663c0.66666,0 1.33331,0 1.33331,0c0.66669,0.66669 1.33334,0.66669 1.33334,0.66669c0,0 0.66666,0 0.66666,0c0,0 0.66666,0 1.33331,0c0.66666,0 1.33331,0 2.66666,0l0.66666,0.66663l0.66666,0l0.66666,0" id="svg_52" stroke-width="2.5" stroke="#d22710" fill="none"/>
  <path d="m306.33414,763.32648c0,0.66663 0,0.66663 -0.66666,0.66663c-0.66666,0 -1.41098,0.52991 -2.66666,1.33331c-3.5957,2.3006 -4.80774,3.80939 -6.6666,5.33331c-1.45819,1.19543 -2.79065,2.46167 -3.99997,3.33331c-0.76483,0.55127 -1.33331,0.66663 -1.33331,0.66663c0,0 -0.21356,-0.68384 0,-1.99994c0.33768,-2.08093 1.19324,-4.05231 1.99997,-5.99994c0.57047,-1.37726 0.66669,-2.66669 1.33334,-3.33331c0.66669,-0.66669 0.66666,-0.66669 1.33331,-0.66669c0.66666,0 1.25174,1.37732 1.99997,2.66663c1.20648,2.07898 1.95203,4.40735 3.33331,6c0.97672,1.12616 1.79562,1.63916 2.66666,1.99994c0.61591,0.25513 1.33331,0 1.99997,0l1.33331,0" id="svg_54" stroke-width="2.5" stroke="#d22710" fill="none"/>
  <line stroke-linecap="null" stroke-linejoin="null" id="svg_55" y2="778.01572" x2="161.66877" y1="689.99379" x1="161.66877" stroke-width="2.5" stroke="#164ba7" fill="none"/>
  <path d="m115.00253,730.6601c-1.33332,-0.66669 -1.79559,-0.36084 -2.66664,0c-0.61591,0.25513 -1.33332,0.66663 -1.99998,1.33331c-0.66666,0.66669 -1.33331,1.33331 -1.99998,2c-0.66665,0.66663 -1.33332,1.33331 -1.33332,1.99994c0,0 -0.51022,0.76819 0,2c0.36079,0.87103 1.56413,1.13696 2.66664,2.66663c0.87165,1.20935 1.12837,2.12396 1.99998,3.33331c0.55127,0.76483 1.0782,1.38403 1.33332,2c0.36079,0.87103 0.66666,0.66669 0.66666,0.66669c0,0 0,0.66663 -0.66666,0.66663c-0.66666,0 -1.21581,0.32416 -2.66664,0.66669c-1.29766,0.30634 -2.66665,0 -3.33331,0c-0.66666,0 -1.33332,-0.66669 -1.33332,-1.33331l0,-0.66669l0,-0.66669" id="svg_56" stroke-width="2.5" stroke="#164ba7" fill="none"/>
  <path d="m120.33582,733.32672c0.66666,1.33331 0.66666,2.66663 0.66666,4c0,1.99994 0,3.33325 0,4.66663c0,0.66663 0,1.33331 -0.66666,1.99994c0,0 0,0 0,0l0,0l0.66666,-0.66663" id="svg_57" stroke-width="2.5" stroke="#164ba7" fill="none"/>
  <path d="m123.00246,726.6601c-0.66666,-0.66663 -1.52858,-1.138 -1.99998,-0.66663c-0.47137,0.47137 0,0.66663 0,0.66663l0,0l0,0.66669l0,0" id="svg_58" stroke-width="2.5" stroke="#164ba7" fill="none"/>
  <path d="m130.33572,737.99335c0,2 0.30634,4.03564 0,5.33331c-0.34248,1.45081 -0.66666,2.66663 -0.66666,3.33331c0,0 0,0.66663 0,0.66663c0,0 -0.00002,-0.66663 0.66666,-2c0.66664,-1.33331 1.74042,-3.43945 2.66664,-5.33325c1.05606,-2.1593 1.79559,-3.63916 2.66664,-4c1.23183,-0.51025 2.05074,-0.25513 2.66664,0c1.7421,0.72162 1.99998,2.66669 2.66664,4.66663c0.66667,2 0.99084,3.21582 1.33333,4.66663c0.30635,1.29773 0.66666,2 0.66666,2l1.33333,0.66669l0.66666,0l0.66666,0" id="svg_59" stroke-width="2.5" stroke="#164ba7" fill="none"/>
  <path d="m167.00206,761.32648" id="svg_73" stroke-width="2.5" stroke="#164ba7" fill="none"/>
  <path d="m163.00209,763.32648c0.66667,0 0.66667,0 1.33333,0c0,0 0.66666,0 0.66666,0c0.66666,0 1.38408,-0.25513 1.99998,0c0.87102,0.36078 1.44872,0.56848 1.99998,1.33331c0.87161,1.20929 1.33331,2 1.33331,2.66663c0,0.66669 0.66667,2 0.66667,2.66663c0,0.66669 0,1.33337 0,2c0,0.66669 -0.66667,1.33331 -0.66667,2c0,0 0,0.66663 0,0.66663l0,0" id="svg_75" stroke-width="2.5" stroke="#164ba7" fill="none"/>
  <path d="m165.66873,769.32642c-1.33331,0.66663 -1.33331,0.66663 -1.33331,0.66663l0,0" id="svg_76" stroke-width="2.5" stroke="#164ba7" fill="none"/>
  <path d="m516.9989,309.33054c-1.33331,1.33334 -1.79559,1.63922 -2.66663,2c-0.61591,0.25513 -1.33331,0.66666 -2,0.66666c-0.66666,0 -1.12894,0.30588 -1.99997,0.66666c-0.61591,0.25513 -1.12894,0.30588 -2,0.66666c-0.61591,0.2551 -1.07822,0.05075 -1.33331,0.66666c-0.36078,0.87106 -0.66666,1.33334 -0.66666,2.66666c0,0.66666 -0.2551,2.05072 0,2.66663c0.36078,0.87106 1.33331,1.33334 1.99997,1.33334l0.66669,0.66666l0.66666,0l0.66666,0" id="svg_77" stroke-width="2.5" stroke="#164ba7" fill="none"/>
  <path d="m513.66559,315.33051c0,0.66666 0,0.66666 0,0.66666c0,0 0,0 0,0c0,0 0,0 0,0c0,0 0,0 0,0c0,0 0,0 0,0c0,0 1.33331,0.66666 2,0.66666l0.66669,0" id="svg_78" stroke-width="2.5" stroke="#164ba7" fill="none"/>
  <line stroke-linecap="null" stroke-linejoin="null" id="svg_79" y2="623.99438" x2="70.89975" y1="623.99438" x1="286.33432" stroke-width="2.5" stroke="#1ebfe9" fill="none"/>
  <path d="m155.66882,601.99457c-1.99997,-0.66663 -2.66666,-0.66663 -3.99995,0c-1.33334,0.66669 -2.12398,1.12836 -3.33331,2c-0.76482,0.55127 -1.3333,1.33331 -1.99997,2c-0.66666,0.66663 -0.99084,1.21582 -1.33333,2.66663c-0.15315,0.6488 -0.51025,2.1015 0,3.33331c0.36079,0.87103 1.28386,1.66498 4.66663,1.99994c1.32683,0.13135 2.66664,0 4.66663,-0.66663l1.33331,-0.66669l0.66667,-0.66663" id="svg_80" stroke-width="2.5" stroke="#1ebfe9" fill="none"/>
  <path d="m165.00208,600.66125c-1.33331,0 -2.27922,0.94592 -3.3333,2c-1.05406,1.05408 -0.99564,2.58563 -1.33333,4.66663c-0.21358,1.3161 0,2.66663 0,4.66663c0,0.66663 0.66667,1.33331 1.33333,1.33331c0.66666,0 1.99998,0 2.66664,0c0.66666,0 1.12834,-0.79071 1.99998,-2c0.55125,-0.76483 0.82306,-2.1015 1.33331,-3.33331c0.36081,-0.87103 0.66667,-1.33331 0.66667,-1.99994c0,-0.66669 -0.46231,-1.63922 -1.33333,-2c-0.61591,-0.25513 -1.33333,0 -1.99998,0l0,-0.66669l-0.66666,0l0,0" id="svg_81" stroke-width="2.5" stroke="#1ebfe9" fill="none"/>
  <path d="m173.66867,589.99469c0,0.66669 -0.4696,2.0097 -0.66667,3.99994c-0.33496,3.38275 -0.92606,6.02496 -1.33331,9.33325c-0.33585,2.72815 -0.15643,5.43481 -0.66666,6.66663c-0.36079,0.87103 -0.66667,0.66669 -0.66667,0.66669c0.66667,0 1.99998,0 3.33331,-1.33337l1.33331,-1.33331" id="svg_82" stroke-width="2.5" stroke="#1ebfe9" fill="none"/>
  <path d="m173.66867,597.99463c-1.33333,-0.66669 -1.99998,-1.33331 -2.66664,-1.33331c-0.66667,0 -0.66667,0 -0.66667,0l0,0l0,0" id="svg_83" stroke-width="2.5" stroke="#1ebfe9" fill="none"/>
  <path d="m209.00168,606.66119c0,0.66669 0,0.66669 0,0.66669c-0.66666,0 -2.0172,-0.45313 -3.3333,-0.66669c-2.08093,-0.33765 -3.99997,-0.66663 -5.99995,-0.66663c-1.33331,0 -2.66664,0 -3.99995,0c-1.33333,0 -2.05072,-0.25513 -2.66664,0c-0.87102,0.36078 -0.66667,0.66663 -0.66667,0.66663l0,0l0.66667,0" id="svg_84" stroke-width="2.5" stroke="#1ebfe9" fill="none"/>
  <path d="m203.00174,596.66132c-1.33333,-0.66669 -1.99998,-0.66669 -2.66664,-0.66669c-1.33333,0 -3.21581,0.32416 -4.66663,0.66669c-1.94647,0.45953 -3.13696,0.8974 -4.66663,1.99994c-1.20932,0.87164 -1.85986,2.05231 -2.66664,4c-0.57047,1.3772 -0.66667,3.33331 -0.66667,5.33325c0,2.66669 -0.34081,4.81476 0.66667,6.66663c2.03996,3.74976 4.66663,3.99994 6.66661,3.99994c1.99997,0 4.58398,-0.89539 7.99992,-1.99994c2.61539,-0.8457 5.27881,-2.07477 7.99992,-4c1.96222,-1.38831 3.67529,-3.06262 4.66663,-4.66663c1.10832,-1.79327 1.33333,-3.33331 1.33333,-4.66663c0,-1.33331 0,-2.66663 -1.33333,-3.99994c-1.33333,-1.33331 -3.3333,-2.66663 -4.66663,-3.33331l-1.33331,-0.66663l-1.33333,-0.66669l-1.33333,0" id="svg_85" stroke-width="2.5" stroke="#1ebfe9" fill="none"/>
  <path d="m91.6694,736.66003c0.66666,0 0.66666,0 0.66666,0c0,0 -0.19526,-0.47137 -0.66666,0c-0.47142,0.47144 -0.66666,0.66669 -1.33332,0.66669c-0.66666,0 -1.99998,0 -3.33331,0c-1.33332,0 -2.66664,0.66663 -4.66662,0.66663c-1.33332,0 -2.66665,0.66669 -3.33331,0.66669c-0.66666,0 -0.66666,0 -0.66666,0l0,-0.66669l0.66666,-0.66663" id="svg_86" stroke-width="2.5" stroke="#164ba7" fill="none"/>
  <path d="m82.33616,732.6601c-0.66666,0.66663 -0.66666,1.99994 -0.66666,3.99994c0,2 -0.45951,4.05347 0,5.99994c0.34249,1.45081 0.66666,2 0.66666,2c0,0 0.66666,0 0.66666,0l0,-0.66669" id="svg_87" stroke-width="2.5" stroke="#164ba7" fill="none"/>
  <path d="m87.66944,729.32678c-0.66666,-0.66669 -1.35115,-0.51355 -1.99998,-0.66669c-1.45081,-0.34247 -2.66664,-0.66663 -4.66662,-0.66663c-1.33333,0 -3.13694,0.23077 -4.66663,1.33331c-1.20931,0.87158 -2.66664,1.99994 -3.33331,3.99994c-0.66666,2 -1.33332,4.66663 -1.33332,7.99994c0,3.33331 0.46081,6.71448 1.33332,9.99994c0.5411,2.03748 1.21581,3.65741 2.66664,3.99994c1.29765,0.30634 3.33331,0 5.33329,-1.33331c1.99998,-1.33331 3.81593,-2.81512 5.99994,-5.33331c1.85316,-2.13672 3.25175,-4.04395 3.99997,-5.33325c1.20648,-2.07898 1.65749,-3.21582 1.99998,-4.66663c0.30634,-1.29767 0,-2.66669 0,-4c0,-1.33331 -0.46169,-2.79065 -1.33332,-3.99994c-1.10253,-1.52966 -1.33332,-2 -1.99998,-2.66663l-0.66666,0" id="svg_88" stroke-width="2.5" stroke="#164ba7" fill="none"/>
  <line stroke-linecap="null" stroke-linejoin="null" id="svg_90" y2="785.99292" x2="284.02417" y1="785.99292" x1="161.66877" stroke-width="2.5" stroke="#5a64e4" fill="none"/>
  <path d="m189.66852,801.9928c-0.66666,-0.66669 -1.33331,-0.66669 -1.33331,-0.66669c-0.66667,0 -1.33333,0 -1.99998,0c-0.66666,0 -2.10149,-0.51025 -3.3333,0c-0.87106,0.36078 -1.79504,1.45728 -2.66666,2.66663c-0.55127,0.76483 -1.65749,1.21588 -1.99997,2.66669c-0.30634,1.29767 0,1.99994 0,3.33331c0,1.33331 0.66664,1.99994 1.33331,2.66663c0.66664,0.66663 1.99998,1.33331 2.66664,1.33331c1.33333,0 2.66664,0 4.66663,0l1.33333,-0.66669" id="svg_91" stroke-width="2.5" stroke="#5a64e4" fill="none"/>
  <path d="m199.00177,803.99274c-1.99998,0 -3.3333,0 -4.66663,0.66669c-1.33331,0.66669 -1.99997,1.33331 -2.66664,2c-0.66664,0.66663 -0.66666,1.33331 -0.66666,1.99994c0,0.66669 0.79068,1.12836 1.99998,2c0.76485,0.55127 1.99998,0.66669 3.3333,0.66669c0.66666,0 2.10149,0.51025 3.3333,0c3.48418,-1.44318 3.33331,-3.33331 3.33331,-4c0,-0.66663 0,-1.33331 0,-1.99994c0,-0.66669 -0.30586,-0.46234 -0.66666,-1.33337c-0.2551,-0.61591 0,-0.66663 -0.66667,-0.66663c0,0 0,0 0,0l0,-0.66669" id="svg_92" stroke-width="2.5" stroke="#5a64e4" fill="none"/>
  <path d="m215.66829,801.9928c0.66666,0 0.66666,0 0.66666,0c0,0 0,0 0,0c-0.66666,0.66663 -1.38406,0.4115 -1.99998,0.66663c-0.87105,0.36084 -1.33331,1.33331 -1.99997,2c-0.66667,0.66669 -0.66667,0.66669 -1.33333,1.33331c0,0 0.37204,0.05176 3.99997,2.66663c0.76485,0.55127 2.05074,1.07825 2.66664,1.33337c0.87102,0.36078 0.66666,0.66663 0.66666,1.33331c0,0 0.2551,0.05072 0,0.66663c-0.36079,0.87103 -1.99998,0.66669 -2.66664,0.66669c-1.33333,0 -1.99998,0 -3.3333,0l0,-0.66669l0,-0.66663" id="svg_93" stroke-width="2.5" stroke="#5a64e4" fill="none"/>
  <path d="m251.66797,798.65948c-0.66667,0 -1.33333,0 -1.99998,0c-0.66666,0 -1.99998,0 -3.3333,0c-1.33333,0 -3.54909,0.34674 -4.66663,1.33331c-1.80199,1.59082 -3.02754,3.13507 -3.99997,5.33331c-1.112,2.51373 -0.66666,4.66663 -0.66666,5.99994c0,1.99994 0.66666,3.99994 1.99998,5.33325c1.33331,1.33331 3.14128,3.32104 6.6666,4c1.9639,0.37823 4.10616,0.25952 5.99995,-0.66669c2.15926,-1.05609 4.14107,-1.80939 5.99994,-3.33331c1.45822,-1.19543 2.52655,-2.71893 3.33331,-4.66663c0.57047,-1.3772 1.33331,-3.33331 1.33331,-4.66663c0,-1.99994 -0.47028,-3.56415 -1.99997,-4.66663c-1.20932,-0.87164 -2.71896,-1.19318 -4.66664,-1.99994c-1.37723,-0.5705 -2.66664,-0.66669 -3.99995,-0.66669c-1.33333,0 -1.99998,0 -2.66664,0c-0.66667,0 -0.66667,0 -0.66667,0l0,0" id="svg_94" stroke-width="2.5" stroke="#5a64e4" fill="none"/>
  <path d="m241.00139,809.32605c0.66667,0 0.66667,0 1.33333,0c0.66666,0 1.33331,0 1.99998,0c0.66666,0 1.33331,0 1.99998,0c0.66666,0 1.33331,-0.66669 2.66664,-0.66669c0.66666,0 1.33331,0 1.99997,0c0,0 0.66667,-0.66663 0.66667,-0.66663c0.66666,0 0.66666,0 0.66666,0c0.66666,0 0.66666,0 0.66666,0c0,0 0,0 0.66667,0c0,0 0,0 0,0c0,0 0,0 0,0c0,0 -0.66667,0 -0.66667,0c0,0 0,0 0,0c0,0 0,0 0,0c0,0 0,0 0,0c0,0 0,0 0,0c0,0 0,0 0,0c0,0 0,0 0,0c0,0 0,0 0,0c0,0 0,0 0,0.66663c0,0 -0.66666,0 -0.66666,0c0,0 0,0 0,0c0,0 0,0 0,0l0,0l0,0.66669" id="svg_96" stroke-width="2.5" stroke="#5a64e4" fill="none"/>
  <line stroke-linecap="null" stroke-linejoin="null" id="svg_97" y2="781.99296" x2="292.33427" y1="783.99294" x1="292.33427" stroke-width="2.5" stroke="#d22710" fill="none"/>
  <line stroke-linecap="null" stroke-linejoin="null" id="svg_100" y2="937.99156" x2="522.99886" y1="780.65964" x1="291.6676" stroke-width="2.5" stroke="#c3c3c3" fill="none"/>
  <line stroke-linecap="null" stroke-linejoin="null" id="svg_101" y2="787.99291" x2="439.66627" y1="789.99289" x1="439.66627" stroke-width="2.5" stroke="#80d633" fill="none"/>
  <line stroke-linecap="null" stroke-linejoin="null" id="svg_103" y2="881.99206" x2="445.66622" y1="777.993" x1="446.33288" stroke-width="2.5" stroke="#80d633" fill="none"/>
  <path d="m455.66614,815.99268c0,1.33331 -0.9975,3.27179 -1.33334,5.99994c-0.40729,3.30835 -0.66666,6.66656 -0.66666,11.33319c0,4 0,7.33331 0.66666,9.99994c0.66669,2.66663 1.12897,4.30579 2,4.66663c1.23181,0.51025 2.66663,0 4.66663,0c1.99997,0 3.33328,-0.66669 5.33328,-2l1.33331,-1.33331" id="svg_106" stroke-width="2.5" stroke="#80d633" fill="none"/>
  <path d="m464.99939,830.65918c-1.33334,0.66669 -3.36774,0.90613 -5.99997,1.33331c-2.08093,0.33771 -3.99994,1.33331 -5.33328,1.33331c-0.66666,0 -1.33331,0 -1.33331,0c0,0 0,0 0.66666,-0.66663l0.66666,-0.66669l1.33334,0" id="svg_107" stroke-width="2.5" stroke="#80d633" fill="none"/>
  <path d="m475.66595,835.32581c-1.33331,0 -3.48553,-0.76532 -5.33328,0c-1.7421,0.72156 -2.94589,2.27924 -3.99997,3.33331c-1.05408,1.05408 0.66666,5.99994 1.33331,5.99994c2,0 3.63364,0.36633 5.33328,-1.33331c1.69968,-1.69965 2.94391,-3.17401 3.99997,-5.33331c0.92621,-1.89374 0.66666,-3.99994 1.33331,-5.33325c0,0 0,-0.66669 0,-0.66669c0,0.66669 0,2 0,3.33331c0,1.33331 0,2 0,3.33331c0,0 0,0 0.66666,0l0.66669,0" id="svg_108" stroke-width="2.5" stroke="#80d633" fill="none"/>
  <path d="m482.33255,831.99249c0,1.33331 -0.4595,2.72021 0,4.66663c0.3425,1.45081 0.66666,2.66669 0.66666,3.33331c0,0.66669 0,0.66669 0.66666,0.66669c0,0 0.22501,-1.53998 1.33334,-3.33331c0.9913,-1.604 1.99997,-2.66663 2.66663,-2.66663c0.66666,0 1.61063,-0.1593 2.66666,1.99994c0.92624,1.8938 1.33331,4 1.99997,5.99994c0.66666,2 0.66666,3.33331 1.33331,4c0,0 0.66669,0 1.33334,-0.66669l0.66666,-1.33331l0.66666,-1.33331" id="svg_109" stroke-width="2.5" stroke="#80d633" fill="none"/>
  <path d="m527.66547,835.99249c0,0.66663 -0.70227,0.36029 -1.99994,0.66663c-1.45087,0.34253 -3.33331,0.66669 -4.66663,0.66669c-2,0 -3.34332,0.1629 -4.66663,0c-2.72815,-0.33588 -2.66669,-0.66669 -2.66669,-1.33331l0,0" id="svg_110" stroke-width="2.5" stroke="#80d633" fill="none"/>
  <path d="m526.99884,824.65924c-0.66669,0 -1.33331,-0.66669 -3.33331,-0.66669c-2.66663,0 -5.17993,0.36578 -7.99994,1.33337c-3.21533,1.10321 -6.14676,2.52991 -7.99994,4.66663c-2.18396,2.51813 -3.33328,5.33325 -3.33328,7.99988c0,2.66669 0.96695,4.96698 2.66663,6.66663c1.69968,1.69965 4.66663,2.66663 7.99991,2.66663c2.66669,0 6.11798,0.43652 9.33325,-0.66663c2.82007,-0.96759 5.47443,-2.47607 7.33331,-4c1.45819,-1.19543 3.00861,-3.06262 3.99994,-4.66663c1.10834,-1.79327 0.66669,-3.33325 0.66669,-4.66663c0,-1.33331 -1.33337,-2.66663 -2.66669,-3.33325l-1.99994,-0.66669l-1.33331,-0.66669l-2,-1.33331" id="svg_111" stroke-width="2.5" stroke="#80d633" fill="none"/>
  <path d="m445.66623,905.99182c-1.33334,0 -1.99997,0.66669 -2.66666,1.33337c-0.66666,0.66663 -1.61255,1.61255 -2.66663,2.66663c-1.05408,1.05408 -1.12836,2.12396 -2,3.33331c-1.10251,1.52966 -1.60764,2.93597 -3.99997,5.99994c-0.5802,0.7431 -1.33331,1.99994 -1.99997,2.66663c-1.33331,1.33331 -2.11536,2.56842 -2.66666,3.33331c-0.87161,1.20929 -1.12833,2.12402 -1.99997,3.33331c-0.55127,0.76483 -0.99081,1.21582 -1.33331,2.66663c-0.15317,0.64886 -0.19525,0.86194 -0.66666,1.33331c-0.47141,0.47144 0,1.33331 0,1.33331c0,0.66669 0,0.66669 0,1.33331c0,0 0,0.66669 0.66666,1.33337c0,0 0,0.66663 0.66666,1.33331c0,0 0.66666,0.66663 0.66666,0.66663c0.66666,0 1.33331,0.66669 1.99997,0.66669c0.66669,0 1.33334,0.66663 2,0.66663c1.33331,0 1.79559,0.30585 2.66663,0.66669c1.23184,0.51025 2,0 3.33331,0c0.66666,0 1.88248,-0.32416 3.33331,-0.66669c1.29764,-0.30634 1.88248,-0.32416 3.33328,-0.66663c0.64886,-0.15314 1.35117,0.1532 2,0c1.45084,-0.34253 1.99997,-0.66669 2.66663,-0.66669c1.33334,0 2,0 3.33331,0c0.66666,0 2.01779,0.15314 2.66666,0c1.45081,-0.34247 2.66663,-0.66663 3.33328,-0.66663c1.33334,0 2,0 2.66666,0c0.66666,0 1.33331,0 1.33331,0c0.66666,0.66663 1.33331,0.66663 1.99997,0.66663c0.66669,0 1.33334,0 2,0c0.66666,0 1.33331,0 1.33331,0c0.66666,0 1.33331,0 1.33331,0c0.66669,0 0.66669,0 1.33334,0c0,0 0.66666,0 1.33331,-0.66663c0.66669,-0.66669 0.97253,-0.46228 1.33331,-1.33331c0.25513,-0.61591 0.66666,-1.33337 0.66666,-2c0,-1.33331 0,-2 0,-2.66663c0,-1.33337 0.2551,-2.71741 0,-3.33331c-0.36078,-0.87103 -0.41153,-1.38403 -0.66666,-2c-0.36078,-0.87103 -0.66666,-1.33331 -1.33331,-2c0,0 -0.97253,-0.46228 -1.33331,-1.33331c-0.2551,-0.61591 -0.66666,-1.33331 -1.33334,-2c-0.66666,-0.66663 -1.33331,-1.33331 -1.99997,-1.99994c-0.66669,-0.66669 -1.4487,-1.23517 -1.99997,-2c-0.87161,-1.20935 -1.33334,-2 -2,-2.66663c-0.66669,-0.66669 -1.12894,-1.63916 -1.99997,-2c-0.61591,-0.25513 -0.66666,-0.66669 -1.33331,-1.33331c-0.66669,-0.66669 -1.63922,-1.12897 -2,-2c-0.2551,-0.61591 -0.66663,-0.66663 -1.33331,-1.33331c-0.66666,-0.66663 -0.66666,-1.33331 -1.33331,-2c0,0 -0.66669,-0.66663 -1.33334,-0.66663c0,0 -0.19525,-0.19525 -0.66666,-0.66669c-0.47141,-0.47137 -0.66666,0 -1.33331,-0.66663c0,0 -0.66666,-0.66669 -0.66666,-0.66669c-0.66666,0 -0.66666,-0.66663 -0.66666,-0.66663c-0.66669,0 -0.66669,0 -0.66669,-0.66669c0,0 -0.66666,0 -0.66666,0c0,0 -0.66666,0 -0.66666,0c-0.66666,0 -0.66666,0 -0.66666,0c-0.66666,0 -0.66666,0 -1.33331,0c0,0 -0.66666,0 -0.66666,0c-0.66666,0.66669 -0.66666,0.66669 -1.33334,1.33331c0,0 -0.66666,0 -0.66666,0.66669c0,0 -0.66666,0 -0.66666,0c0,0 0,0.66663 -0.66666,0.66663c0,0 -0.66666,0.66669 -0.66666,1.33331c0,0.66669 -0.66666,0.66669 -0.66666,1.33337c0,0 0,0.66663 0.66666,0.66663l0.66666,0l1.33331,0" id="svg_112" stroke-width="2.5" stroke="#dba315" fill="none"/>
  <path d="m448.99951,913.99176c-0.66666,-0.66663 -0.66666,-0.66663 -0.66666,-0.66663c0,0 0,0 0,0c0,0 -0.19525,-0.47137 -0.66666,0c-0.94278,0.94281 0,1.99994 0,3.33325c0,0.66669 -0.66666,1.33337 -0.66666,2c0,0 0,0 0,0c0,0.66669 0,0.66669 0.66666,0.66669l0,0" id="svg_113" stroke-width="2.5" stroke="#dba315" fill="none"/>
  <path d="m447.6662,927.32501c0.66666,0 1.13806,-0.19525 0.66666,-0.66669c-0.47141,-0.47137 -0.66666,0 -1.33331,0c-0.66666,0 -1.99997,0.66669 -1.99997,1.33331c0,0 0,0 0,0.66669c0,0 0.66666,0 1.33331,0c0,0 0.66666,0 1.33331,-0.66669c0,0 0,-0.66663 0.66666,-0.66663c0,0 0,0 0,0c0,0 -0.66666,0 -0.66666,0c-0.66666,0 -0.66666,0 -0.66666,0l0,0l0,0l0.66666,0" id="svg_114" stroke-width="2.5" stroke="#dba315" fill="none"/>
  <path d="m492.33246,630.66101c-1.99997,-0.66669 -3.34827,-0.91107 -5.33328,-0.66669c-2.72812,0.33588 -5.99994,1.33331 -8.6666,2.66663c-2.66663,1.33331 -4.87344,3.146 -6.6666,5.33331c-1.5239,1.85889 -2.32895,3.91895 -2.66666,5.99994c-0.32037,1.97418 0.66669,3.33331 2.66666,4.66663c3.99997,2.66663 5.99994,2.66663 7.99994,2.66663c1.99997,0 3.99994,0 5.99994,-1.33331l1.99997,-0.66663" id="svg_115" stroke-width="2.5" stroke="#dba315" fill="none"/>
  <path d="m511.66562,638.66089c-0.66666,-0.66663 -1.38406,-1.07819 -1.99997,-1.33331c-0.871,-0.36078 -2,-0.66663 -3.33331,-0.66663c-1.99997,0 -4.12396,0.46167 -5.33328,1.33331c-1.52966,1.10254 -2.99564,3.25238 -3.33331,5.33325c-0.21359,1.31616 -0.30634,3.36896 0,4.66663c0.3425,1.45087 3.03851,5.1781 11.33325,2.66669c2.30054,-0.69653 4.36087,-3.13507 5.33328,-5.33331c1.112,-2.51373 1.33331,-4.66663 1.33331,-6.66663c0,-1.33331 -1.21582,-2.99078 -2.66663,-3.33325c-0.64886,-0.15314 -2.1015,-1.17694 -3.33331,-0.66669c-0.87103,0.36084 -1.33334,0.66669 -1.33334,1.33331l0,0.66669" id="svg_116" stroke-width="2.5" stroke="#dba315" fill="none"/>
  <path d="m528.33215,613.32782c0.66663,0.66663 -0.3609,2.46844 -1.33331,4.66663c-1.112,2.51373 -2.2301,6.11792 -3.33331,9.33325c-0.96753,2.82001 -1.33331,5.99994 -1.33331,8.66656c0,2 0.47601,4.80774 1.99994,6.66663c1.1955,1.45825 2.54919,2.99078 4,3.33331c1.94647,0.45953 4.66663,0 6.66656,0l1.33337,-1.33331l1.33331,-1.33337l1.33331,-1.99994" id="svg_117" stroke-width="2.5" stroke="#dba315" fill="none"/>
  <path d="m537.66541,629.3277c-1.33331,0 -2.66669,0 -4,0c-1.33331,0 -3.21576,0.32416 -4.66663,0.66663c-1.29767,0.30634 -1.99994,0 -3.33325,0.66669l0,0l-0.66669,0.66663" id="svg_118" stroke-width="2.5" stroke="#dba315" fill="none"/>
  <path d="m566.99847,635.99426c0.66663,-0.66663 0.66663,-0.66663 0.66663,-0.66663c0,0 0,0 0,0c-1.33331,0 -2.66663,0 -4.66663,0c-1.33331,0 -2.66663,0 -3.99994,0c-1.33331,0 -2,0 -2,-0.66669l0,-0.66669l0,-0.66663" id="svg_119" stroke-width="2.5" stroke="#dba315" fill="none"/>
  <path d="m568.99841,624.66107c-1.33331,-0.66669 -1.99994,-0.66669 -3.33325,-0.66669c-2,0 -3.33331,0.66669 -4.66663,0.66669c-1.33331,0 -2.66669,0 -4,0l-0.66663,0l0,0l0,0" id="svg_120" stroke-width="2.5" stroke="#dba315" fill="none"/>
  <path d="m628.99792,607.99451c-0.66669,0.66669 0,0.66669 0.66663,0.66669c1.33331,0 2.71063,-0.58508 4,-1.33331c2.07898,-1.20642 2.86462,-3.07587 4.66663,-4.66663c1.11755,-0.98657 1.99994,-2 1.99994,-2c0,0 0,0 0,0c0,1.33331 -0.46954,3.34302 -0.66663,5.33331c-0.66992,6.7655 -1.69366,8.03552 -2,9.33325c-0.34253,1.45081 -0.66669,2.66663 -0.66669,3.99994l0,1.33331" id="svg_121" stroke-width="2.5" stroke="#dba315" fill="none"/>
  <path d="m662.99762,625.3277c-2,0 -4.69641,0.50757 -8.66663,1.33331c-5.3822,1.11938 -11.30548,2.33282 -17.33319,2.66669c-6.65637,0.36865 -11.99988,0.66663 -17.33313,0.66663c-4,0 -13.33325,-2.66663 -13.33325,-2.66663l0,0" id="svg_122" stroke-width="2.5" stroke="#dba315" fill="none"/>
  <path d="m609.66473,639.32758c-2,0.66669 -3.40802,1.94556 -5.33325,4.66663c-1.38831,1.96222 -2.65442,4.47461 -3.33331,7.99994c-0.50427,2.61853 -0.66669,4.66663 -0.66669,7.33325c0,2 -0.20496,3.45734 0.66669,4.66663c1.10254,1.52966 2.05225,1.85986 3.99994,2.66663c1.37726,0.5705 3.33331,0.66669 5.99994,0.66669l2,-0.66669l2.66663,-0.66663l2,-1.33331" id="svg_123" stroke-width="2.5" stroke="#dba315" fill="none"/>
  <path d="m620.99799,654.66077c-1.33331,-0.66663 -3.35913,-1.01294 -5.33331,-1.33331c-2.08093,-0.33771 -5.25232,-0.99567 -7.33325,-1.33331c-2.6322,-0.42712 -4.66663,0 -6.66663,0c-0.66663,0 -1.99994,0 -1.99994,0l0,0l0.66663,0" id="svg_124" stroke-width="2.5" stroke="#dba315" fill="none"/>
  <path d="m634.33118,649.99414c-2,0 -4.68658,-0.32581 -7.33325,0c-2.72809,0.33588 -5.47443,1.80945 -7.33325,3.33331c-1.45819,1.19543 -2.30591,2.46222 -2.66669,3.33331c-0.51025,1.23181 0,2 0,2c1.33337,0 2.98523,0.77869 8.66663,-2c2.15924,-1.05603 3.99994,-3.33331 5.99994,-5.33331c1.33331,-1.33331 2.66663,-2.66663 3.33331,-3.33331c0,0 0.66663,0 0.66663,0c0.66669,1.33337 0.9975,3.27185 1.33331,6c0.24432,1.98499 0.66669,3.99994 0.66669,5.33325c0,1.33331 0.66669,2 1.33331,2l1.33331,-0.66669l1.33331,-0.66663l1.33337,-1.33331" id="svg_125" stroke-width="2.5" stroke="#dba315" fill="none"/>
  <path d="m648.33105,647.99414c0,0.66669 0.30634,1.36902 0,2.66669c-0.34247,1.45081 -0.66663,2.66663 -0.66663,3.99994c0,0.66669 0,0.66669 0,0.66669c0.66663,0 1.78186,0.4798 4.66663,-2.66669c1.62433,-1.77173 3.47437,-3.80933 5.33325,-5.33325c1.45819,-1.19543 2.66663,-2 3.99994,-2c1.33337,0 2.32416,0.54919 2.66669,2c0.45953,1.94647 0.66663,4.66663 0.66663,7.99994c0,2.66663 0,5.33325 0,7.33325c0,0.66669 0,1.33331 0,1.33331l0.66669,0l0.66663,0" id="svg_126" stroke-width="2.5" stroke="#dba315" fill="none"/>
  <line stroke-linecap="null" stroke-linejoin="null" id="svg_127" y2="703.62013" x2="432.99967" y1="580.66144" x1="432.99967" stroke-width="2.5" stroke="#dba315" fill="none"/>
  <line stroke-linecap="null" stroke-linejoin="null" id="svg_128" y2="703.327" x2="731.01575" y1="703.327" x1="434.99965" stroke-width="2.5" stroke="#dba315" fill="none"/>
  <line stroke-linecap="null" stroke-linejoin="null" id="svg_129" y2="581.32081" x2="734.33029" y1="703.327" x1="734.33029" stroke-width="2.5" stroke="#dba315" fill="none"/>
  <line stroke-linecap="null" stroke-linejoin="null" id="svg_130" y2="580.66144" x2="434.97304" y1="580.66144" x1="735.66361" stroke-width="2.5" stroke="#dba315" fill="none"/>
 </g>
</svg>